<svg width="100" height="100" viewBox="0 0 100 100" fill="none" xmlns="http://www.w3.org/2000/svg">
<path d="M100 50.3056C100 22.5225 77.6143 2.26138e-06 50 2.26138e-06C22.3857 2.26138e-06 0 22.5225 0 50.3056C0 75.4145 18.2843 96.2261 42.1875 100V64.847H29.4922V50.3056H42.1875V39.2226C42.1875 26.6148 49.6521 19.6506 61.0732 19.6506C66.5437 19.6506 72.2656 20.6331 72.2656 20.6331V33.013H65.9607C59.7495 33.013 57.8125 36.8908 57.8125 40.869V50.3056H71.6797L69.4629 64.847H57.8125V100C81.7157 96.2261 100 75.4145 100 50.3056Z" fill="#F5F5F5"/>
</svg>
