<svg width="100" height="100" viewBox="0 0 100 100" fill="none" xmlns="http://www.w3.org/2000/svg">
<path fill-rule="evenodd" clip-rule="evenodd" d="M50 1.91217e-06C22.3894 1.91217e-06 0 22.9511 0 51.2659C0 73.9156 14.3265 93.1322 34.1931 99.911C36.6919 100.386 37.6093 98.7989 37.6093 97.4449C37.6093 96.2232 37.5629 92.184 37.5414 87.9002C23.6314 91.0014 20.6962 81.8515 20.6962 81.8515C18.4217 75.9268 15.1446 74.3503 15.1446 74.3503C10.6081 71.1684 15.4865 71.2338 15.4865 71.2338C20.5074 71.5955 23.1511 76.5176 23.1511 76.5176C27.6106 84.3542 34.848 82.0884 37.7012 80.7785C38.1508 77.4659 39.4458 75.2035 40.8757 73.9233C29.77 72.6278 18.0955 68.2311 18.0955 48.5875C18.0955 42.9912 20.0487 38.418 23.2472 34.8278C22.728 33.5357 21.0166 28.3215 23.7324 21.26C23.7324 21.26 27.931 19.8831 37.4851 26.5158C41.4735 25.3799 45.7508 24.8103 50 24.7899C54.2492 24.8103 58.5298 25.3799 62.5257 26.5158C72.069 19.8831 76.2618 21.26 76.2618 21.26C78.9834 28.3215 77.272 33.5357 76.7528 34.8278C79.9588 38.418 81.8979 42.9912 81.8979 48.5875C81.8979 68.2786 70.201 72.6133 59.0672 73.8825C60.8606 75.4734 62.4586 78.5933 62.4586 83.3762C62.4586 90.2357 62.4015 95.7563 62.4015 97.4449C62.4015 98.81 63.3007 100.409 65.8351 99.9051C85.6917 93.1187 100 73.9088 100 51.2659C100 22.9511 77.6139 1.91217e-06 50 1.91217e-06Z" fill="#F5F5F5"/>
<path d="M18.9379 73.6059C18.8278 73.8614 18.437 73.9378 18.0809 73.7621C17.7175 73.5948 17.5146 73.2476 17.6322 72.9921C17.7398 72.7306 18.1306 72.6576 18.4933 72.8325C18.8559 72.9997 19.0629 73.3504 18.9379 73.6059Z" fill="#F5F5F5"/>
<path d="M20.9634 75.9222C20.7249 76.1489 20.2579 76.0436 19.9425 75.6854C19.6146 75.328 19.5542 74.8492 19.7959 74.62C20.0418 74.3933 20.4939 74.4994 20.821 74.8568C21.1488 75.2185 21.2126 75.693 20.9634 75.9222Z" fill="#F5F5F5"/>
<path d="M22.9347 78.8744C22.6284 79.0934 22.1266 78.8888 21.817 78.433C21.5106 77.9762 21.5106 77.4295 21.8244 77.2105C22.1341 76.9915 22.6284 77.1893 22.9422 77.6409C23.2477 78.1044 23.2477 78.6511 22.9347 78.8744Z" fill="#F5F5F5"/>
<path d="M25.6353 81.7272C25.3612 82.0371 24.7775 81.9539 24.3502 81.5311C23.9131 81.1177 23.7914 80.531 24.0654 80.2212C24.3436 79.9105 24.9307 79.9979 25.3612 80.4173C25.7951 80.8299 25.9267 81.4207 25.6353 81.7272Z" fill="#F5F5F5"/>
<path d="M29.3612 83.3836C29.2395 83.7852 28.6781 83.9669 28.1118 83.7962C27.5463 83.6205 27.1762 83.151 27.2904 82.7452C27.408 82.3403 27.9727 82.151 28.5432 82.3335C29.1078 82.5084 29.4788 82.9753 29.3612 83.3836Z" fill="#F5F5F5"/>
<path d="M33.4534 83.6905C33.4675 84.1132 32.9872 84.4638 32.3927 84.4715C31.7949 84.4859 31.3106 84.1429 31.304 83.727C31.304 83.2999 31.7742 82.9536 32.3712 82.9425C32.9657 82.9307 33.4534 83.2711 33.4534 83.6905Z" fill="#F5F5F5"/>
<path d="M37.261 83.0263C37.3322 83.438 36.919 83.8616 36.3287 83.9745C35.7482 84.084 35.2109 83.8285 35.1372 83.4202C35.0652 82.9974 35.4849 82.5738 36.0654 82.4643C36.6565 82.359 37.1856 82.6069 37.261 83.0263Z" fill="#F5F5F5"/>
</svg>
