<svg width="100" height="100" viewBox="0 0 100 100" fill="none" xmlns="http://www.w3.org/2000/svg">
<path d="M100 74.9995C100 77.1917 99.3834 79.224 98.3955 81.0121L66.8214 45.6852L98.0532 18.3602C99.2682 20.2882 100 22.553 100 25.0004V74.9995ZM50.0001 52.0996L93.4581 14.0749C91.6748 13.0986 89.6666 12.4999 87.5003 12.4999H12.4999C10.331 12.4999 8.32215 13.0986 6.54602 14.0749L50.0001 52.0996ZM62.1159 49.7991L52.0565 58.6064C51.4681 59.119 50.7355 59.3749 50.0001 59.3749C49.2643 59.3749 48.5317 59.119 47.9433 58.6064L37.8817 49.7987L5.90815 85.5772C7.82464 86.7795 10.0707 87.4998 12.4997 87.4998H87.5003C89.9289 87.4998 92.176 86.7795 94.0918 85.5772L62.1159 49.7991ZM1.94719 18.36C0.732465 20.288 0 22.5528 0 25.0004V74.9997C0 77.1919 0.613754 79.2242 1.60528 81.0123L33.1757 45.6793L1.94719 18.36Z" fill="#313131"/>
</svg>
