<svg width="100" height="100" viewBox="0 0 100 100" fill="none" xmlns="http://www.w3.org/2000/svg">
<path d="M86 39.4418C92.2001 39.4418 97.2262 34.4366 97.2262 28.2623C97.2262 22.088 92.2001 17.0828 86 17.0828C79.7999 17.0828 74.7737 22.088 74.7737 28.2623C74.7737 34.4366 79.7999 39.4418 86 39.4418Z" fill="#F5F5F5"/>
<path fill-rule="evenodd" clip-rule="evenodd" d="M40.545 60.3325C39.871 59.8966 37.953 57.3354 32.648 44.719C32.3168 43.9275 32.0086 43.2449 31.7178 42.6598L30.632 40.0556L21.3354 17.6994H2.73633L12.0358 40.0556L21.3354 62.4262L29.9235 83.0759C29.9825 83.2153 30.0814 83.3343 30.2079 83.418C30.3345 83.5017 30.483 83.5463 30.6349 83.5463C30.7868 83.5463 30.9353 83.5017 31.0618 83.418C31.1884 83.3343 31.2873 83.2153 31.3462 83.0759L40.6918 60.7971C40.725 60.7147 40.7285 60.6234 40.7018 60.5387C40.675 60.454 40.6196 60.3812 40.545 60.3325Z" fill="#F5F5F5"/>
<path fill-rule="evenodd" clip-rule="evenodd" d="M75.3872 60.3325C74.7133 59.8966 72.7952 57.3354 67.4902 44.719C67.159 43.9275 66.848 43.2449 66.5571 42.6569L65.4771 40.0556L56.1776 17.6994H37.5786L46.8781 40.0556L56.1776 62.4262L64.7658 83.0759C64.8247 83.2153 64.9236 83.3343 65.0502 83.418C65.1767 83.5017 65.3252 83.5463 65.4771 83.5463C65.629 83.5463 65.7775 83.5017 65.9041 83.418C66.0306 83.3343 66.1295 83.2153 66.1885 83.0759L75.5341 60.8C75.5669 60.7171 75.5702 60.6255 75.5435 60.5405C75.5168 60.4554 75.4616 60.382 75.3872 60.3325V60.3325Z" fill="#F5F5F5"/>
</svg>
