<svg width="30" height="30" viewBox="0 0 30 30" fill="none" xmlns="http://www.w3.org/2000/svg">
<path fill-rule="evenodd" clip-rule="evenodd" d="M15 5.73652e-07C6.71681 5.73652e-07 0 6.88534 0 15.3798C0 22.1747 4.29796 27.9397 10.2579 29.9733C11.0076 30.1157 11.2828 29.6397 11.2828 29.2335C11.2828 28.867 11.2689 27.6552 11.2624 26.3701C7.08941 27.3004 6.20885 24.5555 6.20885 24.5555C5.52651 22.778 4.54337 22.3051 4.54337 22.3051C3.18242 21.3505 4.64596 21.3701 4.64596 21.3701C6.15222 21.4786 6.94534 22.9553 6.94534 22.9553C8.28319 25.3063 10.4544 24.6265 11.3104 24.2335C11.4452 23.2398 11.8337 22.561 12.2627 22.177C8.931 21.7883 5.42864 20.4693 5.42864 14.5762C5.42864 12.8974 6.01461 11.5254 6.97415 10.4483C6.81841 10.0607 6.30498 8.49646 7.11971 6.37801C7.11971 6.37801 8.37931 5.96492 11.2455 7.95475C12.442 7.61398 13.7252 7.44309 15 7.43698C16.2748 7.44309 17.559 7.61398 18.7577 7.95475C21.6207 5.96492 22.8786 6.37801 22.8786 6.37801C23.695 8.49646 23.1816 10.0607 23.0259 10.4483C23.9876 11.5254 24.5694 12.8974 24.5694 14.5762C24.5694 20.4836 21.0603 21.784 17.7202 22.1648C18.2582 22.642 18.7376 23.578 18.7376 25.0129C18.7376 27.0707 18.7204 28.7269 18.7204 29.2335C18.7204 29.643 18.9902 30.1226 19.7505 29.9715C25.7075 27.9356 30 22.1726 30 15.3798C30 6.88534 23.2842 5.73652e-07 15 5.73652e-07Z" fill="currentColor"/>
<path d="M5.68134 22.0817C5.64831 22.1584 5.53107 22.1813 5.42426 22.1286C5.31521 22.0784 5.25436 21.9743 5.28963 21.8976C5.32192 21.8192 5.43916 21.7973 5.54796 21.8497C5.65675 21.8999 5.71885 22.0051 5.68134 22.0817Z" fill="currentColor"/>
<path d="M6.28898 22.7767C6.21744 22.8447 6.07735 22.8131 5.98271 22.7056C5.88434 22.5984 5.86621 22.4548 5.93874 22.386C6.01251 22.318 6.14814 22.3498 6.24625 22.457C6.34462 22.5655 6.36374 22.7079 6.28898 22.7767Z" fill="currentColor"/>
<path d="M6.88042 23.6623C6.78852 23.728 6.63799 23.6667 6.54509 23.5299C6.45319 23.3929 6.45319 23.2289 6.54733 23.1631C6.64023 23.0974 6.78852 23.1568 6.88266 23.2923C6.97432 23.4313 6.97432 23.5953 6.88042 23.6623Z" fill="currentColor"/>
<path d="M7.69062 24.5182C7.6084 24.6111 7.43328 24.5862 7.30511 24.4593C7.17396 24.3353 7.13744 24.1593 7.21966 24.0664C7.30312 23.9731 7.47923 23.9994 7.6084 24.1252C7.73856 24.249 7.77805 24.4262 7.69062 24.5182Z" fill="currentColor"/>
<path d="M8.80835 25.0151C8.77184 25.1356 8.60343 25.1901 8.43353 25.1389C8.26388 25.0862 8.15284 24.9453 8.18712 24.8236C8.22239 24.7021 8.3918 24.6453 8.56294 24.7001C8.73235 24.7525 8.84362 24.8926 8.80835 25.0151Z" fill="currentColor"/>
<path d="M10.036 25.1071C10.0402 25.2339 9.89616 25.3391 9.71781 25.3414C9.53847 25.3458 9.39316 25.2429 9.39117 25.1181C9.39117 24.99 9.53226 24.886 9.71136 24.8827C9.8897 24.8792 10.036 24.9813 10.036 25.1071Z" fill="currentColor"/>
<path d="M11.1783 24.9079C11.1997 25.0314 11.0757 25.1585 10.8986 25.1924C10.7245 25.2252 10.5633 25.1486 10.5412 25.0261C10.5196 24.8993 10.6455 24.7722 10.8196 24.7393C10.997 24.7077 11.1557 24.7821 11.1783 24.9079Z" fill="currentColor"/>
</svg>
