<svg width="30" height="30" viewBox="0 0 30 30" fill="none" xmlns="http://www.w3.org/2000/svg">
<path d="M30 22.4999C30 23.1576 29.815 23.7672 29.5187 24.3037L20.0464 13.7056L29.416 5.5081C29.7804 6.08651 30 6.76595 30 7.50016V22.4999ZM15 15.6299L28.0374 4.2225C27.5024 3.92961 26.9 3.75 26.2501 3.75H3.74998C3.09929 3.75 2.49665 3.92961 1.96381 4.2225L15 15.6299ZM18.6348 14.9398L15.617 17.582C15.4404 17.7357 15.2206 17.8125 15 17.8125C14.7793 17.8125 14.5595 17.7357 14.383 17.582L11.3645 14.9396L1.77245 25.6732C2.34739 26.0339 3.0212 26.25 3.74991 26.25H26.2501C26.9787 26.25 27.6528 26.0339 28.2276 25.6732L18.6348 14.9398ZM0.584158 5.50804C0.219739 6.08645 0 6.76588 0 7.50016V22.4999C0 23.1576 0.184126 23.7673 0.481584 24.3037L9.9527 13.7038L0.584158 5.50804Z" fill="currentColor"/>
</svg>
