<svg width="30" height="30" viewBox="0 0 30 30" fill="none" xmlns="http://www.w3.org/2000/svg">
<path d="M30 15C30 23.2875 23.2875 30 15 30C6.7125 30 0 23.2875 0 15C0 6.7125 6.7125 0 15 0C23.2875 0 30 6.7125 30 15ZM12.255 22.9125C18.9075 22.9125 22.545 17.4 22.545 12.6225C22.545 12.465 22.545 12.3075 22.5375 12.1575C23.2425 11.6475 23.8575 11.01 24.345 10.2825C23.7 10.5675 23.0025 10.7625 22.2675 10.8525C23.0175 10.4025 23.5875 9.6975 23.8575 8.85C23.16 9.2625 22.3875 9.5625 21.5625 9.7275C20.9025 9.0225 19.965 8.5875 18.9225 8.5875C16.9275 8.5875 15.3075 10.2075 15.3075 12.2025C15.3075 12.4875 15.3375 12.765 15.405 13.0275C12.3975 12.8775 9.735 11.4375 7.95 9.2475C7.6425 9.78 7.4625 10.4025 7.4625 11.0625C7.4625 12.315 8.1 13.425 9.075 14.07C8.4825 14.055 7.9275 13.89 7.44 13.62C7.44 13.635 7.44 13.65 7.44 13.665C7.44 15.42 8.685 16.875 10.3425 17.2125C10.0425 17.295 9.72 17.34 9.39 17.34C9.1575 17.34 8.9325 17.3175 8.7075 17.2725C9.165 18.7125 10.5 19.755 12.0825 19.785C10.845 20.7525 9.285 21.33 7.59 21.33C7.2975 21.33 7.0125 21.315 6.7275 21.2775C8.31 22.3125 10.215 22.9125 12.255 22.9125Z" fill="currentColor"/>
</svg>
