<svg width="30" height="30" viewBox="0 0 30 30" fill="none" xmlns="http://www.w3.org/2000/svg">
<path d="M25.5 11.6991C27.3084 11.6991 28.7743 10.205 28.7743 8.3619C28.7743 6.51882 27.3084 5.02472 25.5 5.02472C23.6916 5.02472 22.2257 6.51882 22.2257 8.3619C22.2257 10.205 23.6916 11.6991 25.5 11.6991Z" fill="currentColor"/>
<path fill-rule="evenodd" clip-rule="evenodd" d="M12.2423 17.9351C12.0457 17.805 11.4863 17.0405 9.93902 13.2744C9.84242 13.0381 9.75254 12.8343 9.6677 12.6597L9.35102 11.8823L6.6395 5.2088H1.21478L3.92714 11.8823L6.6395 18.5601L9.14438 24.7242C9.16157 24.7658 9.19043 24.8013 9.22733 24.8263C9.26424 24.8513 9.30756 24.8646 9.35186 24.8646C9.39616 24.8646 9.43948 24.8513 9.47639 24.8263C9.51329 24.8013 9.54215 24.7658 9.55934 24.7242L12.2851 18.0738C12.2948 18.0492 12.2958 18.0219 12.288 17.9967C12.2802 17.9714 12.2641 17.9496 12.2423 17.9351Z" fill="currentColor"/>
<path fill-rule="evenodd" clip-rule="evenodd" d="M22.4046 17.9351C22.208 17.805 21.6486 17.0405 20.1013 13.2744C20.0047 13.0381 19.914 12.8343 19.8292 12.6588L19.5142 11.8823L16.8018 5.2088H11.3771L14.0894 11.8823L16.8018 18.5601L19.3067 24.7242C19.3239 24.7658 19.3527 24.8013 19.3896 24.8263C19.4265 24.8513 19.4699 24.8646 19.5142 24.8646C19.5585 24.8646 19.6018 24.8513 19.6387 24.8263C19.6756 24.8013 19.7044 24.7658 19.7216 24.7242L22.4474 18.0747C22.457 18.0499 22.458 18.0226 22.4502 17.9972C22.4424 17.9718 22.4263 17.9499 22.4046 17.9351V17.9351Z" fill="currentColor"/>
</svg>
